<?xml version="1.0" encoding="UTF-8" standalone="no"?>
<svg width="287px" height="343px" viewBox="0 0 287 343" version="1.1" xmlns="http://www.w3.org/2000/svg" xmlns:xlink="http://www.w3.org/1999/xlink">
    <!-- Generator: Sketch 41.2 (35397) - http://www.bohemiancoding.com/sketch -->
    <title>icon_512</title>
    <desc>Created with Sketch.</desc>
    <defs></defs>
    <g id="Page-1" stroke="none" stroke-width="1" fill="none" fill-rule="evenodd">
        <g id="Artboard" transform="translate(-929.000000, -656.000000)" fill="#FFFFFF">
            <path d="M1087.5103,656.021598 L952.3221,674.280048 L1077.98114,873.657228 L1197.64346,816.856758 L1215.46112,742.954358 L1075.49067,788.848718 L1019.95263,738.944178 L1123.54548,710.623368 L1087.5103,656.021598 Z M945.00101,816.549578 L996.87307,854.769778 C996.87307,854.769778 998.86866,878.450648 1007.78964,926.295398 L1068.39607,998.368618 L1192.8863,910.461358 L1215.04605,830.812138 C1215.04605,830.812138 1067.85343,911.007608 1066.76145,907.731538 C1065.66926,904.455498 929.14833,677.950978 929.14833,677.950978 L945.00101,816.549578 Z M1144.42805,709.982318 L1141.37105,752.810778 C1147.16513,751.070028 1166.49262,743.644678 1198.33026,733.613438 L1144.42805,709.982318 Z" id="icon_512"></path>
        </g>
    </g>
</svg>